<svg viewBox="0 0 32 32" xmlns="http://www.w3.org/2000/svg">
    <path fill="#1a1e22" d="M16 32C18.1908 32 20.2486 31.5799 22.1735 30.7398C24.109 29.9103 25.8106 28.7617 27.2782 27.2941C28.7458 25.8159 29.8996 24.1143 30.7398 22.1894C31.5799 20.2539 32 18.1908 32 16C32 13.8092 31.5799 11.7514 30.7398 9.82652C29.8996 7.89099 28.7458 6.18943 27.2782 4.72183C25.8106 3.2436 24.109 2.08973 22.1735 1.26022C20.238 0.420073 18.1748 0 15.984 0C13.7933 0 11.7301 0.420073 9.79462 1.26022C7.86972 2.08973 6.17348 3.2436 4.70588 4.72183C3.23829 6.18943 2.08441 7.89099 1.24427 9.82652C0.414756 11.7514 0 13.8092 0 16C0 18.1908 0.414756 20.2539 1.24427 22.1894C2.08441 24.1143 3.23829 25.8159 4.70588 27.2941C6.18411 28.7617 7.88568 29.9103 9.81057 30.7398C11.7461 31.5799 13.8092 32 16 32ZM10.6241 22.4128C10.337 22.4128 10.0924 22.3117 9.89033 22.1097C9.6989 21.9076 9.60319 21.6683 9.60319 21.3918C9.60319 21.1153 9.70422 20.8707 9.90628 20.658L14.5643 16.016L9.90628 11.3739C9.70422 11.1612 9.60319 10.9166 9.60319 10.6401C9.60319 10.3636 9.6989 10.1296 9.89033 9.93819C10.0924 9.74676 10.337 9.65105 10.6241 9.65105C10.9006 9.65105 11.1452 9.75208 11.3579 9.95414L16 14.5803L20.674 9.93819C20.876 9.72549 21.1153 9.61914 21.3918 9.61914C21.679 9.61914 21.9182 9.72017 22.1097 9.92223C22.3117 10.1137 22.4128 10.3476 22.4128 10.6241C22.4128 10.9113 22.3117 11.1612 22.1097 11.3739L17.4516 16.016L22.0937 20.658C22.2958 20.8388 22.3968 21.0834 22.3968 21.3918C22.3968 21.6683 22.2958 21.9076 22.0937 22.1097C21.9023 22.3117 21.663 22.4128 21.3759 22.4128C21.0781 22.4128 20.8282 22.3064 20.6261 22.0937L16 17.4676L11.3898 22.0937C11.1771 22.3064 10.9219 22.4128 10.6241 22.4128Z"></path>
</svg>