<svg width="108" height="28" viewBox="0 0 108 28" fill="none" xmlns="http://www.w3.org/2000/svg">
<g clip-path="url(#clip0_1_264)">
<mask id="mask0_1_264" style="mask-type:alpha" maskUnits="userSpaceOnUse" x="0" y="0" width="28" height="28">
<path d="M0 14C0 7.40033 0 4.10051 2.05025 2.05025C4.10051 0 7.40033 0 14 0C20.5997 0 23.8995 0 25.9497 2.05025C28 4.10051 28 7.40033 28 14C28 20.5997 28 23.8995 25.9497 25.9497C23.8995 28 20.5997 28 14 28C7.40033 28 4.10051 28 2.05025 25.9497C0 23.8995 0 20.5997 0 14Z" fill="#001C34"/>
</mask>
<g mask="url(#mask0_1_264)">
<path fill-rule="evenodd" clip-rule="evenodd" d="M2.05025 2.05025C0 4.10051 0 7.40033 0 14C0 14.2209 0 14.4381 7.68882e-05 14.6517L7.97717 8.14406C8.67308 7.57634 9.68577 7.62757 10.3208 8.26262L18.3334 16.2752L27.8024 6.80608C27.569 4.63728 27.06 3.16054 25.9497 2.05025C23.8995 0 20.5997 0 14 0C7.40033 0 4.10051 0 2.05025 2.05025ZM27.9953 11.563L19.5708 19.9875C18.8874 20.6709 17.7794 20.6709 17.0959 19.9875L8.9642 11.8557L0.0560835 19.1229C0.186134 22.4748 0.617755 24.5172 2.05025 25.9497C4.10051 28 7.40033 28 14 28C20.5997 28 23.8995 28 25.9497 25.9497C28 23.8995 28 20.5997 28 14C28 13.1321 28 12.3214 27.9953 11.563Z" fill="#1A1E22"/>
</g>
</g>
<path fill-rule="evenodd" clip-rule="evenodd" d="M36 2.50794V23.4349H46.2349V2.50794H42.146V8.90794H40.1143V2.50794H36ZM42.146 19.4222H40.1143V12.9206H42.146V19.4222ZM47.9365 2V25.746H52.0762V14.419H53.8794V26H58.0444V2H53.8794V10.4063H52.0762V2H47.9365ZM61.4087 23.4349V2.55873H70.6532V6.57143H65.5738V19.4222H69.8405C70.8817 19.4222 71.6183 19.3206 72.3294 19.0413V2H76.469V10.4063H78.7802V2H82.9452V26H78.7802V14.419H76.469V25.746H72.3294V22.9524C71.6944 23.2571 70.8563 23.4349 69.7135 23.4349H61.4087ZM103.021 26V2H107.592V26H103.021ZM85.7762 22.9778L89.3571 6.41905H85.8016V2.55873H100.684V6.41905H97.5349L101.116 22.9778L96.6206 23.8667L93.4968 7.48571H93.3952L90.2714 23.8667L85.7762 22.9778Z" fill="#1A1E22"/>
<defs>
<clipPath id="clip0_1_264">
<rect width="28" height="28" fill="white"/>
</clipPath>
</defs>
</svg>
